<?xml version="1.0" encoding="utf-8"?>
<!-- Generator: Adobe Illustrator 19.0.0, SVG Export Plug-In . SVG Version: 6.00 Build 0)  -->
<svg version="1.1" id="Layer_1" xmlns="http://www.w3.org/2000/svg" xmlns:xlink="http://www.w3.org/1999/xlink" x="0px" y="0px"
	 viewBox="0 0 300 300" style="enable-background:new 0 0 300 300;" xml:space="preserve">
<style type="text/css">
	.st0{fill:#FFC107;stroke:#FFFFFF;stroke-miterlimit:10;}
</style>
<path id="XMLID_1_" class="st0" d="M274.7,97.7H22.6c-5.5,0-10-4.5-10-10V23.9c0-5.5,4.5-10,10-10h252.1c5.5,0,10,4.5,10,10v63.8
	C284.7,93.2,280.2,97.7,274.7,97.7z"/>
<path id="XMLID_3_" class="st0" d="M274.7,193.6H22.6c-5.5,0-10-4.5-10-10v-63.8c0-5.5,4.5-10,10-10h252.1c5.5,0,10,4.5,10,10v63.8
	C284.7,189.1,280.2,193.6,274.7,193.6z"/>
<path id="XMLID_4_" class="st0" d="M274.7,289.6H22.6c-5.5,0-10-4.5-10-10v-63.8c0-5.5,4.5-10,10-10h252.1c5.5,0,10,4.5,10,10v63.8
	C284.7,285.1,280.2,289.6,274.7,289.6z"/>
</svg>
