<?xml version="1.0" encoding="utf-8"?>
<!-- Generator: Adobe Illustrator 19.0.0, SVG Export Plug-In . SVG Version: 6.00 Build 0)  -->
<svg version="1.1" id="Layer_1" xmlns="http://www.w3.org/2000/svg" xmlns:xlink="http://www.w3.org/1999/xlink" x="0px" y="0px"
	 viewBox="0 0 960 560" style="enable-background:new 0 0 960 560;" xml:space="preserve">
<style type="text/css">
	.st0{opacity:0.19;fill:#FFFFFF;stroke:#424242;stroke-width:1.5926;stroke-miterlimit:10;}
	.st1{opacity:0.22;fill:#B66838;}
	.st2{opacity:0.22;fill:#D69F80;}
	.st3{opacity:0.22;fill:#F9C6AA;}
	.st4{fill:#2D1C13;}
	.st5{fill:#302925;}
	.st6{fill:none;stroke:#0F0E0D;stroke-width:1.5926;stroke-miterlimit:10;}
	.st7{opacity:6.000000e-002;fill:#050505;}
	.st8{opacity:0.15;fill:#333231;}
</style>
<g>
	<path class="st0" d="M151.8,250.3l21.2,48.8l20.2,64.8l37.2,53.1l68,34l29.7,15.9l12.7,46.7l-25.5,12.7l-18,13.8l-1.1,8.5h7.4
		l10.6,6.4h26.5l30.8-7.4l5.5-9.6l3-5.3l8.5-11.7l17-24.4l8.2-15l0.3-11.5V434v45.3c0,1.6-0.5,3.2-1.4,4.5l-32.6,48.9l34-7.4l17-18
		v-20.2l5.3-17l11.7-11.7l14.9-8.5l15.9-5.3l18-4.2l12.7,4.2l9.6-5.3l8.5-5.3l18,1.1l40.3-12.7l35-14.9l43.5-18l11.7-12.7l14.9,14.9
		l27.6,17l35,13.8l27.6,13.8l10.6,9.6v13.8l-11.7,17l-8.5,7.4l-13.8,4.2L746.4,502l-1.1,7.4l14.9,3.2l14.9,2.1h10.6l6.4,8.5
		l-5.3,7.4l11.7,4.2l13.8-1.1l19.1,3.2l12.7-4.2l8.5-11.7l4.2-12.7v-15.9l5.3-39.3l18-35l17-29.7v-28.7l-13.8-48.8l-19.1-46.7
		l-37.2-34l-25.5-28.7l-22.3-14.9h-14.9L756,193l-75.4-6.4l-75.4-4.2l-66.9,7.4L482,193l-28.7-4.2l-19.1,4.2l-17-5.3h-30.8
		l-28.7-20.2l-21.2-28.7l-13.8-19.1l-22.3-20.2l2.1-37.2L292,32.7l-10.6-17h-11.7L257,24.2l-20.2,18L224,53.9l-6.4,4.2l-18-2.1
		l-24.4,1.1l-23.4-13.8L137,28.4l-12.7-12.7l-15.9-9.6H97.7h-8.5v13.8v23.4L103,70.9l5.3,22.3l10.6,20.2l7.4,11.7l-1.1,9.6
		l11.7,22.3l4.2,8.5l-6.4,20.2l-11.7,25.5l2.1,14.9l11.7,11.7L151.8,250.3z"/>
	<path class="st1" d="M138,180.3c11.7-5.6,22.6-22.3,33.8-25c-2.7,12.2,5.2,23.5,18.1,23.9c11.4,0.4,20.8-8.2,28.9-15.4
		c9-7.9,16.4-12.8,30.1-13.3c16.4-0.6,24.1,15.5,25,30.1c0.5,9.4,0,22.6-2.8,31.6c-3.1,9.7-12.3,17-15.9,25.2
		c7.5-0.6,14.7-3.2,21-7.3c-11.2,4.1-17.1,18.6-21.2,28.9c-5.7,14.2-6.7,25.2-16.4,38c6.6,0.6,12.2-3.2,18-5.9
		c-8.9,10.9-17.5,26.1-15.4,40.8c7.8-4.4,16.2-8.7,23.3-14c3.7,11.6-4.8,28.9-6.3,40.6c0.7,0.5,2.6,1.9,3.5,2.4
		c16-5.6,14.8-21.8,33.1-23.3c-10.6,31.1,2.5,53.8,18.2,79.2c4.7,7.6,7.6,20.3,14.4,26.1c9.8,8.4,26,4.8,37.1-0.1
		c13.4-5.9,26.9-28.2,43.3-22.6c8.1,2.7,10,9.8,11.5,18.7c0.7,4.2-2.3,17.2,0,20.5c7,9.7,28.5-5.7,36.3-9.2
		c11.9-5.4,25.6-9.8,38.6-10.9c14.8-1.2,23.8,0.3,38.5-4.8c12.1-4.2,24.1-7.8,36.6-11.7c19.6-6.1,37.4-16.3,55.9-24.7
		c27.2-12.3,55.7-20.9,56.3-57.6c35.7,19.5,70.3,45.6,101.9,70.8c14,11.2,28.5,16.3,45.4,21.1c10.3,2.9,23.4,15,33,15.6
		c2-11.6,5.1-12,10.5-20.2c1.7-2.6,6.3-12.1,6.7-15c1.5-12-11.2-14.9-19.4-22.5c-10.8-9.8-19.1-24-22.7-38.1
		c2.8,0.4,5.7-0.5,8.5,0.5c-3.2-29.2-47.7-54.3-38.9-85c5.9,0.2,11.5,3.4,15.8,7.3c1-6.1-0.5-10.5,4.3-13.6c5.9-3.7,19.9,0.2,26.8-1
		c-2.7-9.6-8.2-14.1-15.9-20c-9.7-7.5-15.9-15.6-24-24.3c-8.5-9.2-23.2-22.5-35.5-26c-11.8-3.3-22.6,1.7-32.6,3.8
		c-21.5,4.4-44.3-1.6-65-6.1c-26-5.7-53.7-3.4-80.2-3.4c-25.2,0-48.3,7.3-73.3,8.5c-29.6,1.4-58.2-2.5-87.6-2.1
		c-26.4,0.3-52.7,6.5-72.8-14.5c-14.7-15.4-28.6-33-41.9-49.8c-10.5-13.2-22.1-26.6-40-23.1c12.8,1.5,12.8-0.7,14.2-11.7
		c1-8.2,1.6-16.7,1.9-25c0.5-13.2-5.4-32.9-14.1-43.6c-7.8-9.7-20.9-11.6-29-2.3c-12.2,13.8-31.9,36.6-52.6,37.2
		c-21.6,0.6-36.4,0.1-51.4-14.4c-8.6-8.3-17.8-15.7-27.5-22.7C120.3,17,103.6,3.5,97.2,5.1C69.4,11.7,104.3,74.9,111,89
		c7.5,15.9,14.2,30.7,19.1,47.2c3.8,13,18,28.5,11.2,42"/>
	<path class="st1" d="M302.6,100.6c0.8,7.1-1.3,11.4-5.3,16.5c-4.7,6-15.5,10.5-17.2,17.3c5.9,0.2,17.2-2.1,22.5,0.3
		c5.5,2.4,8.3,10.2,12,14.4c4.6,5.4,11.5,9.3,15.9,14.8c5.2,6.6,7.5,16.2,14.7,21.3c5.6,3.9,42.9,7.3,34.6,23.6
		c-2.3,4.5-18.3,6.9-23.1,11.5c-8.3,7.8-10.7,18.5-17.9,26.7c3.6-18.2,41.5-32.2,56.1-35.6c2.3,12.6-7.2,25.7-6.3,38.9
		c0.8-11.1,10.9-47.7,28.5-34.9c11.8,8.6,7.8,35.7,7.6,48c2.5-13.9,2.2-28.2,2.2-42.3c-1.2,5.5,3.2,16.9,6.4,20.8
		c3.7,4.6,5.8,7.8,14.4,5c13.6-4.4,20.7-21.4,32.9-28.6c10.7-6.3,21.9-14.6,32.8-19.9c13.1-6.4,29-1.9,42.2-7.4
		c-23.7-7.8-58.3,0.8-83,0.8c-26.3,0-63.7,2.7-88.3-7.3c-16.4-6.6-32.4-23.4-42.1-37.4c-9.9-14.3-20.4-38.2-37.3-45.5"/>
	<path class="st2" d="M849.4,256.7c17.1-0.2,25.1,40.3,28.9,52.3c4.1,12.8,4.1,24.3,6.1,37.4c1.8,11.7,6,21.1,5.3,34.1
		c-0.5,10.8-6.2,44-23.3,39.7c0.8-6.7,4.8-9.6,0.7-16.5c-2.4-4-10-7.5-13.5-11c-9.4-9.3-19.7-21.6-23.2-34.8
		c-2.4-8.9-2.1-16.2-6.4-25c-5.4-11.1-12.7-21.1-18.8-31.5c-7.7-13.2-15.6-29.2-2.9-42.5c7.5-7.8,22.2-13.8,33.2-11.9
		c9.7,1.7,14.2,11.7,23.5,11.8"/>
	<path class="st3" d="M124.2,100.6c2.1-15.2,9.3-23.8,18.3-36.1c8.3-11.3,4.5-17.6-4.5-28.1c-4.8-5.6-20.7-23.9-30.3-17
		c-2.9,2.1-5.3,16-5.8,19.6c-1.2,8.3,2.3,14.5,5.3,21.6c2.7,6.3,5.8,12.5,8.7,18.8c3.3,7.2,2.7,17.8,8.3,22.4"/>
	<path class="st3" d="M280.3,108.1c2.4-7.6-0.6-16.5,1.1-24.4c1.4-6.5,5.9-10.9,5.3-18.5c-1-12.8-10.1-24.5-14-36.6
		c-16.8-3.8-29.4,30.4-31.9,42.1c-2.5,11.5-0.1,13.2,11.1,19.9c9.6,5.7,21,14.6,30.6,18.6"/>
	<path class="st4" d="M204.9,212.1c-8.2,5.1-16.2,15.8-25.5,22.6c-7.3,5.3-32.6,12.7-37.9,2c12,1.9,25.1,3.1,37-1
		c12-4.1,16.3-14.9,25.3-22.5"/>
	<path class="st4" d="M148.7,225.9c18.7-6.1,1.5-38.7-17.5-21.5c-6.5,5.9-6.4,15.1,0.7,21.3c9.8,8.6,15.4-2.7,25.3-1.9"/>
	<path class="st5" d="M214.2,142.7c0.6,4.3-3.5,8.3-6.4,10.8c-4.3,3.6-8.8,3.7-13.6,1.4c-3.4-1.7-6.9-5.5-5.1-10.3
		c1.1-2.9,4.5-8.2,7.6-9c4.1-1.1,14.9,3.4,17.9,6.8"/>
	<path class="st5" d="M131.4,135.1c3-2.8,8.2-5,11.5-1.2c2.3,2.7,4.1,9.8,3.3,13.2c-1.6,6.4-7.7,4.3-10.7,0.2
		c-1.7-2.4-5.3-12.1-2.5-13.9"/>
	<path class="st6" d="M200.3,136c-5-0.3-8.3,2.4-12.7,3.9"/>
	<path class="st6" d="M215.8,141.9"/>
	<path class="st6" d="M129.8,135.1c2.3-4.2,7.8-3.1,11.2-1.3c3.7,1.9,4.4,4.2,6.3,7.7"/>
	<path class="st6" d="M133.4,147.5"/>
	<path class="st6" d="M187.9,151.9c4.5,0.9,7.9,4.1,13.1,4"/>
	<path class="st0" d="M147.6,248.2c22.5,1.9,49-1.1,64.2-19.2c13.3-15.8,19.1-36.7,27.1-55.2"/>
	<path class="st7" d="M174.1,246.1c1.5,11.8,11.9,20,22,25.7c13.9,7.9,19.2,3.1,27.2-8.8c13.4-19.8,32.1-66.8,14.5-87.8
		c-6.6,25.4-30.1,73-63.7,69.8"/>
	<path class="st8" d="M273.9,103.8c-2.1-5.6-3.7-11-5.4-16.8c-1.9-0.6-6.3-0.7-8.3,0c-1.1,5.6-6.7,8.3-11.7,7.9
		c3.8-9,6.7-17.9,12.7-26c13.2-0.3,12.7,20.5,12.7,29.6"/>
</g>
</svg>
