<?xml version="1.0" encoding="utf-8"?>
<!-- Generator: Adobe Illustrator 19.0.0, SVG Export Plug-In . SVG Version: 6.00 Build 0)  -->
<svg version="1.1" id="Layer_1" xmlns="http://www.w3.org/2000/svg" xmlns:xlink="http://www.w3.org/1999/xlink" x="40px" y="40px"
	 viewBox="0 0 300 300" style="enable-background:new 0 0 300 300;" xml:space="preserve">
<style type="text/css">
	.st0{fill:#FFC107;stroke:#FFFFFF;stroke-miterlimit:10;}
</style>
<path id="XMLID_1_" class="st0" d="M131.1,142.1H25.7c-5.5,0-10-4.5-10-10V26.8c0-5.5,4.5-10,10-10h105.4c5.5,0,10,4.5,10,10v105.4
	C141.1,137.7,136.6,142.1,131.1,142.1z"/>
<path id="XMLID_3_" class="st0" d="M270.7,142.1H165.3c-5.5,0-10-4.5-10-10V26.8c0-5.5,4.5-10,10-10h105.4c5.5,0,10,4.5,10,10v105.4
	C280.7,137.7,276.2,142.1,270.7,142.1z"/>
<path id="XMLID_5_" class="st0" d="M132.9,278.7H27.5c-5.5,0-10-4.5-10-10V163.3c0-5.5,4.5-10,10-10h105.4c5.5,0,10,4.5,10,10v105.4
	C142.9,274.2,138.4,278.7,132.9,278.7z"/>
<path id="XMLID_4_" class="st0" d="M272.5,278.7H167.1c-5.5,0-10-4.5-10-10V163.3c0-5.5,4.5-10,10-10h105.4c5.5,0,10,4.5,10,10
	v105.4C282.5,274.2,278,278.7,272.5,278.7z"/>
</svg>
