<?xml version="1.0" encoding="utf-8"?>
<!-- Generator: Adobe Illustrator 19.0.0, SVG Export Plug-In . SVG Version: 6.00 Build 0)  -->
<svg version="1.1" id="Layer_1" xmlns="http://www.w3.org/2000/svg" xmlns:xlink="http://www.w3.org/1999/xlink" x="0px" y="0px"
	 viewBox="0 0 50 50" style="enable-background:new 0 0 50 50;" xml:space="preserve">
<style type="text/css">
	.st0{fill:#FC2D64;}
</style>
<symbol  id="Add_Favorite">
</symbol>
<use xlink:href="#Add_Favorite"  width="-32766" height="-32766" id="XMLID_1_" x="16383" y="16383" transform="matrix(1 0 0 -1 25.2502 20.75)" style="overflow:visible;"/>
<g id="XMLID_5_">
	<path id="XMLID_22_" class="st0" d="M25.5,16.5c-1.1-2.1,1.9-5.4,3.5-6.4c2.2-1.4,5.9-2.5,8.5-1.9c9.1,2.2,1,15.4-2.6,19
		c-4,4-8.1,8.1-12.6,11.5c-1.1-0.6-2-2.2-2.7-3.2c-1.3-1.9-3-3.6-4.1-5.6C12.2,23.9,7.1,17.3,8,10.1c0.5-4.3,6.1-3.7,9.2-2.8
		c2.2,0.7,4.5,1.9,5.9,3.8c0.9,1.3,1.2,3.3,2.5,4.3"/>
</g>
</svg>
