<?xml version="1.0" standalone="no"?>
<!DOCTYPE svg PUBLIC "-//W3C//DTD SVG 20010904//EN"
 "http://www.w3.org/TR/2001/REC-SVG-20010904/DTD/svg10.dtd">
<svg version="1.0" xmlns="http://www.w3.org/2000/svg"
 width="700.000000pt" height="700.000000pt" viewBox="0 0 700.000000 700.000000"
 preserveAspectRatio="xMidYMid meet">
<metadata>
Created by potrace 1.11, written by Peter Selinger 2001-2013
</metadata>
<g transform="translate(0.000000,700.000000) scale(0.100000,-0.100000)"
fill="#000000" stroke="none">
<path d="M6035 6770 c10 -11 20 -20 23 -20 3 0 -3 9 -13 20 -10 11 -20 20 -23
20 -3 0 3 -9 13 -20z"/>
<path d="M6119 6704 c42 -38 44 -43 31 -59 -8 -10 -15 -21 -15 -24 0 -3 -7 -5
-15 -4 -11 1 -10 -2 4 -12 10 -8 16 -17 13 -22 -5 -8 -17 -113 -22 -190 -2
-27 2 -43 9 -43 7 0 8 -3 1 -8 -12 -8 -13 -22 -2 -39 4 -6 3 -14 -2 -18 -5 -3
-8 -15 -6 -28 3 -12 7 -35 10 -52 14 -73 28 -114 38 -108 5 3 7 1 4 -4 -4 -6
9 -47 28 -91 20 -45 36 -97 37 -116 1 -23 5 -33 12 -29 6 4 5 0 -2 -9 -9 -12
-10 -18 -2 -23 6 -4 7 -12 2 -18 -4 -7 -7 -21 -6 -32 16 -179 13 -167 59 -285
45 -112 41 -173 -13 -241 -11 -14 -18 -14 -65 -2 -83 23 -596 15 -743 -11 -11
-2 -50 -7 -87 -11 -37 -4 -67 -10 -67 -14 0 -3 -12 -6 -27 -7 -40 -1 -92 -12
-170 -35 -37 -12 -81 -24 -98 -29 -16 -4 -50 -15 -75 -25 -25 -9 -52 -18 -60
-20 -9 -2 -45 -15 -80 -30 -36 -15 -69 -28 -75 -29 -5 -1 -32 -12 -59 -24 -27
-12 -53 -22 -58 -22 -5 0 -6 -5 -2 -12 4 -6 3 -8 -3 -5 -10 6 -154 -59 -164
-75 -3 -5 -9 -9 -13 -9 -3 1 -38 -15 -76 -34 -44 -22 -68 -40 -64 -47 4 -6 3
-8 -3 -5 -6 4 -42 -9 -81 -28 -38 -18 -82 -37 -96 -41 -15 -4 -30 -13 -33 -20
-3 -8 -8 -12 -13 -9 -11 7 -102 -54 -95 -65 3 -5 0 -8 -7 -5 -7 2 -33 -14 -58
-36 -52 -47 -130 -99 -177 -118 -18 -7 -31 -16 -28 -20 2 -4 -10 -5 -27 -3
-23 4 -29 2 -23 -8 6 -9 4 -11 -5 -5 -7 4 -16 2 -21 -6 -6 -10 -9 -10 -9 -2 0
7 -7 10 -16 6 -9 -3 -12 -9 -7 -12 5 -3 19 -20 31 -37 l22 -32 -23 -21 c-19
-19 -191 -133 -452 -301 -47 -30 -85 -58 -85 -62 0 -5 -5 -8 -11 -8 -18 0
-109 -92 -102 -104 3 -6 2 -8 -2 -3 -9 7 -45 -20 -45 -34 0 -10 -80 -89 -116
-114 -29 -21 -197 -105 -209 -105 -13 0 -147 -71 -162 -85 -8 -8 -19 -15 -25
-15 -6 0 -18 -8 -27 -18 -9 -11 -27 -25 -40 -31 -13 -7 -44 -29 -70 -49 -53
-40 -162 -92 -236 -112 -27 -7 -54 -16 -60 -19 -11 -6 -18 -8 -41 -10 -9 0
-12 -6 -8 -13 4 -7 3 -8 -5 -4 -6 4 -55 -7 -109 -25 -53 -18 -99 -33 -102 -34
-3 0 -9 -3 -15 -7 -5 -3 -37 -12 -70 -19 -33 -7 -67 -14 -75 -16 -59 -15 -104
-18 -245 -17 -88 0 -196 4 -240 8 -44 4 -94 9 -110 10 -47 5 -68 13 -244 97
-89 44 -168 79 -174 79 -21 0 67 -69 123 -96 82 -39 92 -43 125 -48 17 -2 31
-5 33 -6 1 -2 6 -3 11 -4 5 0 12 -3 15 -6 4 -5 -30 -10 -81 -13 -7 0 -13 -3
-13 -7 0 -4 -12 -5 -26 -2 -19 3 -25 1 -20 -6 4 -8 2 -10 -8 -6 -13 5 -143
-34 -221 -66 -16 -7 -39 -16 -50 -21 -70 -28 -227 -107 -265 -133 -52 -37
-115 -94 -109 -101 3 -2 22 0 44 5 37 8 55 11 161 26 151 22 262 28 484 28
198 0 361 -7 435 -19 17 -2 50 -7 75 -9 25 -3 83 -13 130 -21 47 -8 99 -17
115 -20 17 -2 39 -6 50 -8 11 -3 40 -8 65 -12 25 -4 52 -9 60 -10 22 -4 133
-17 148 -18 9 0 8 -6 -3 -24 -9 -13 -20 -34 -25 -47 -8 -22 -7 -24 13 -20 12
2 51 9 87 15 75 12 168 35 208 51 15 6 32 12 37 14 6 1 86 30 178 63 156 56
317 129 377 171 14 10 114 61 223 114 109 53 226 113 260 134 34 20 74 43 88
50 26 14 109 87 109 97 0 3 9 15 20 28 12 12 27 29 35 37 7 9 58 38 112 65 54
27 101 54 105 60 4 5 8 6 8 2 0 -4 44 15 98 42 53 28 101 50 105 50 4 0 14 6
22 13 7 7 41 28 74 47 33 19 58 38 55 42 -3 5 3 6 12 2 14 -5 16 -3 11 11 -4
10 -3 15 4 11 13 -9 61 23 54 36 -4 5 -3 9 2 8 16 -4 43 13 43 27 0 8 5 14 11
14 6 0 9 7 5 15 -4 12 -2 13 13 6 10 -6 22 -7 26 -3 5 4 5 2 1 -5 -6 -11 26
-37 49 -39 6 0 23 -6 39 -13 16 -6 36 -9 43 -7 8 3 11 1 8 -4 -6 -9 10 -14 42
-13 7 1 10 -4 6 -10 -4 -6 0 -8 10 -4 10 3 17 3 17 -2 0 -7 54 -35 70 -36 3 0
10 -3 15 -7 25 -16 86 -20 102 -7 14 12 16 12 8 0 -5 -8 -4 -12 1 -9 5 4 34 9
64 13 98 11 115 14 135 19 11 2 28 5 38 5 12 1 16 5 11 14 -6 9 -4 9 7 1 8 -6
23 -10 34 -8 40 8 103 9 98 2 -2 -5 3 -8 12 -8 23 0 74 -28 117 -64 39 -33 39
-45 -3 -90 -18 -18 -20 -25 -18 -42 0 -4 -4 -10 -11 -14 -6 -4 -12 -17 -13
-28 -1 -12 -4 -22 -7 -22 -4 0 -7 -6 -8 -12 0 -7 -3 -24 -7 -38 -20 -79 -16
-170 15 -355 17 -104 36 -208 42 -230 9 -35 14 -56 21 -90 2 -5 7 -16 11 -24
7 -10 5 -12 -5 -6 -8 5 -5 -2 6 -15 11 -13 14 -20 8 -16 -15 8 -17 -3 -3 -24
5 -9 5 -19 -2 -27 -8 -10 -7 -12 4 -8 9 4 15 0 15 -9 0 -8 -3 -13 -7 -11 -3 2
-6 -9 -5 -25 0 -22 3 -26 13 -18 10 9 11 6 3 -15 -7 -17 -7 -28 -1 -32 6 -4
10 -11 10 -16 0 -6 -4 -8 -9 -5 -13 9 -7 -22 7 -36 7 -7 12 -17 12 -23 0 -5
-5 -3 -10 5 -7 12 -9 10 -7 -8 1 -12 6 -21 12 -19 6 3 10 -31 11 -94 0 -55 -3
-99 -8 -99 -4 0 -5 -6 -2 -14 3 -8 1 -37 -4 -65 -9 -48 -8 -51 12 -51 12 0 37
11 57 24 47 32 91 43 174 41 87 -3 123 -9 205 -34 36 -12 87 -24 114 -27 45
-6 48 -6 38 12 -14 27 -51 59 -89 78 -18 9 -33 18 -33 20 0 2 18 1 40 -1 98
-10 4 34 -102 48 -46 6 -104 17 -130 25 -59 19 -119 75 -146 137 -25 56 -106
336 -118 407 -3 14 -7 32 -9 40 -7 26 -18 133 -19 195 -2 53 2 85 20 173 12
59 69 162 126 227 14 16 35 40 46 53 11 12 26 22 35 22 9 0 19 5 22 11 4 6 14
8 22 5 8 -3 24 -1 36 6 12 7 27 13 32 13 25 3 64 18 61 24 -2 3 6 6 17 7 12 1
37 5 54 9 29 7 34 5 43 -19 14 -38 13 -82 -5 -146 -44 -159 -56 -209 -61 -252
-5 -45 -3 -50 39 -95 51 -56 68 -84 133 -213 26 -52 90 -167 143 -255 107
-180 125 -222 118 -282 -5 -46 -25 -69 -87 -102 -40 -22 -95 -70 -87 -77 3 -3
30 8 61 25 65 34 137 48 170 33 13 -6 37 -38 55 -75 32 -64 77 -120 70 -87 -4
20 32 100 45 100 6 0 27 -5 46 -10 19 -6 69 -13 110 -16 41 -2 94 -6 117 -8
47 -4 151 -34 171 -49 7 -5 15 -8 17 -5 7 7 -74 88 -88 89 -7 1 -19 1 -27 0
-28 -4 24 26 59 34 l35 7 -29 16 c-17 8 -52 15 -80 14 -27 -1 -88 -2 -135 -4
-122 -3 -215 28 -279 93 -26 26 -57 67 -69 91 -12 23 -38 72 -58 108 -71 126
-145 266 -197 369 -51 103 -52 106 -52 195 0 184 92 369 275 556 44 45 80 87
80 95 0 7 16 20 35 29 21 10 33 22 29 28 -4 7 -2 8 4 4 12 -7 47 8 68 28 6 7
41 36 77 65 45 37 64 58 60 70 -4 13 -3 13 5 2 8 -11 15 -10 41 8 17 13 29 27
26 32 -4 5 0 6 8 3 12 -4 52 34 96 92 11 13 41 71 43 81 1 5 12 19 25 33 13
14 23 28 23 31 0 4 20 27 45 51 41 41 79 108 88 154 2 10 8 27 12 38 4 10 8
31 9 46 1 15 4 26 9 23 4 -2 8 3 8 11 2 19 1 16 18 83 7 29 9 57 5 64 -4 8 -3
9 4 5 8 -5 12 1 13 16 0 13 3 34 6 48 3 14 6 41 7 62 0 20 4 34 7 32 11 -6 6
91 -5 98 -8 5 -8 8 0 8 17 0 -5 121 -25 138 -9 7 -10 10 -2 6 11 -5 12 0 8 22
-3 16 -8 45 -12 64 -3 19 -9 42 -12 50 -3 8 -7 17 -8 20 -11 45 -29 79 -37 74
-7 -4 -8 -2 -4 4 8 13 -21 82 -38 94 -6 4 -7 8 -3 8 5 0 -1 13 -12 29 -12 16
-21 33 -21 39 0 5 -10 17 -22 26 -13 9 -17 14 -11 11 8 -4 11 -1 7 9 -3 9 -10
16 -15 16 -5 0 -8 6 -6 13 1 6 -4 11 -11 9 -8 -1 -11 2 -8 7 12 19 -143 198
-159 183 -5 -4 -5 -2 -2 4 8 14 -66 87 -78 77 -4 -5 -5 -3 -2 4 4 6 2 18 -5
25 -18 19 -48 69 -55 91 -3 9 -10 17 -15 17 -5 0 -7 3 -5 8 7 11 -12 54 -20
49 -5 -3 -7 25 -5 61 4 92 5 101 13 97 10 -7 50 41 42 50 -5 4 -3 5 3 2 6 -4
37 11 68 33 31 22 61 40 66 40 6 0 10 4 10 9 0 17 113 52 178 56 35 2 66 6 68
8 8 7 -64 65 -107 88 -24 12 -44 21 -44 20 0 -2 -12 0 -26 4 -14 3 -34 18 -45
33 -35 49 -96 103 -109 98 -8 -3 -15 0 -17 6 -6 17 -195 13 -215 -4 -9 -7 -18
-12 -20 -10 -9 6 -23 1 -18 -8 3 -6 -1 -7 -9 -4 -10 4 -16 1 -16 -9 0 -20 -24
-16 -52 9 -48 41 -62 47 -19 8z m251 -304 c0 -5 -2 -10 -4 -10 -3 0 -8 5 -11
10 -3 6 -1 10 4 10 6 0 11 -4 11 -10z m-83 -85 c0 -8 -4 -12 -9 -9 -5 3 -6 10
-3 15 9 13 12 11 12 -6z m-2 -75 c3 -5 1 -10 -4 -10 -6 0 -11 5 -11 10 0 6 2
10 4 10 3 0 8 -4 11 -10z m-80 -80 c3 -5 1 -10 -4 -10 -6 0 -11 5 -11 10 0 6
2 10 4 10 3 0 8 -4 11 -10z m129 -38 c3 -5 -1 -9 -9 -9 -8 0 -12 4 -9 9 3 4 7
8 9 8 2 0 6 -4 9 -8z m-9 -250 c-3 -3 -11 0 -18 7 -9 10 -8 11 6 5 10 -3 15
-9 12 -12z m-1 -110 c3 -5 -1 -9 -9 -9 -8 0 -12 4 -9 9 3 4 7 8 9 8 2 0 6 -4
9 -8z m281 -82 c3 -5 1 -10 -4 -10 -6 0 -11 5 -11 10 0 6 2 10 4 10 3 0 8 -4
11 -10z m165 -160 c0 -5 -2 -10 -4 -10 -3 0 -8 5 -11 10 -3 6 -1 10 4 10 6 0
11 -4 11 -10z m-325 -79 c3 -5 2 -12 -3 -15 -5 -3 -9 1 -9 9 0 17 3 19 12 6z
m85 5 c0 -3 -4 -8 -10 -11 -5 -3 -10 -1 -10 4 0 6 5 11 10 11 6 0 10 -2 10 -4z
m235 -6 c3 -5 1 -10 -4 -10 -6 0 -11 5 -11 10 0 6 2 10 4 10 3 0 8 -4 11 -10z
m-158 -75 c0 -8 -4 -12 -9 -9 -5 3 -6 10 -3 15 9 13 12 11 12 -6z m-77 -5 c0
-5 -5 -10 -11 -10 -5 0 -7 5 -4 10 3 6 8 10 11 10 2 0 4 -4 4 -10z m266 -122
c3 -4 -1 -5 -10 -4 -8 1 -18 5 -22 8 -3 4 1 5 10 4 8 -1 18 -5 22 -8z m-266
-118 c0 -5 -5 -10 -11 -10 -5 0 -7 5 -4 10 3 6 8 10 11 10 2 0 4 -4 4 -10z
m224 -38 c3 -5 -1 -9 -9 -9 -8 0 -12 4 -9 9 3 4 7 8 9 8 2 0 6 -4 9 -8z m-309
-31 c3 -5 2 -12 -3 -15 -5 -3 -9 1 -9 9 0 17 3 19 12 6z m80 -11 c3 -5 1 -10
-4 -10 -6 0 -11 5 -11 10 0 6 2 10 4 10 3 0 8 -4 11 -10z m-475 -80 c0 -5 -5
-10 -11 -10 -5 0 -7 5 -4 10 3 6 8 10 11 10 2 0 4 -4 4 -10z m800 6 c0 -3 -4
-8 -10 -11 -5 -3 -10 -1 -10 4 0 6 5 11 10 11 6 0 10 -2 10 -4z m44 -124 c3
-5 -1 -9 -9 -9 -8 0 -12 4 -9 9 3 4 7 8 9 8 2 0 6 -4 9 -8z m-207 -37 c0 -8
-4 -12 -9 -9 -5 3 -6 10 -3 15 9 13 12 11 12 -6z m-562 -4 c3 -5 2 -12 -3 -15
-5 -3 -9 1 -9 9 0 17 3 19 12 6z m85 5 c0 -3 -4 -8 -10 -11 -5 -3 -10 -1 -10
4 0 6 5 11 10 11 6 0 10 -2 10 -4z m400 0 c0 -3 -4 -8 -10 -11 -5 -3 -10 -1
-10 4 0 6 5 11 10 11 6 0 10 -2 10 -4z m-320 -80 c0 -3 -4 -8 -10 -11 -5 -3
-10 -1 -10 4 0 6 5 11 10 11 6 0 10 -2 10 -4z m160 -6 c0 -5 -5 -10 -11 -10
-5 0 -7 5 -4 10 3 6 8 10 11 10 2 0 4 -4 4 -10z m-6 -78 c3 -5 -1 -9 -9 -9 -8
0 -12 4 -9 9 3 4 7 8 9 8 2 0 6 -4 9 -8z m326 -2 c0 -5 -2 -10 -4 -10 -3 0 -8
5 -11 10 -3 6 -1 10 4 10 6 0 11 -4 11 -10z m-220 -36 c0 -8 -19 -13 -24 -6
-3 5 1 9 9 9 8 0 15 -2 15 -3z m-585 -33 c3 -5 2 -12 -3 -15 -5 -3 -9 1 -9 9
0 17 3 19 12 6z m80 -11 c3 -5 1 -10 -4 -10 -6 0 -11 5 -11 10 0 6 2 10 4 10
3 0 8 -4 11 -10z m565 0 c0 -5 -2 -10 -4 -10 -3 0 -8 5 -11 10 -3 6 -1 10 4
10 6 0 11 -4 11 -10z m-1482 -45 c-3 -3 -9 2 -12 12 -6 14 -5 15 5 6 7 -7 10
-15 7 -18z m1162 -29 c0 -3 -4 -8 -10 -11 -5 -3 -10 -1 -10 4 0 6 5 11 10 11
6 0 10 -2 10 -4z m324 -4 c3 -5 -1 -9 -9 -9 -8 0 -12 4 -9 9 3 4 7 8 9 8 2 0
6 -4 9 -8z m-1659 -41 c-9 -8 -36 -10 -30 -2 2 4 11 8 20 8 8 0 13 -3 10 -6z
m1609 -7 c3 -8 2 -12 -4 -9 -6 3 -10 10 -10 16 0 14 7 11 14 -7z m-1239 -34
c3 -5 1 -10 -4 -10 -6 0 -11 5 -11 10 0 6 2 10 4 10 3 0 8 -4 11 -10z m960 0
c3 -5 1 -10 -4 -10 -6 0 -11 5 -11 10 0 6 2 10 4 10 3 0 8 -4 11 -10z m259
-118 c3 -5 -1 -9 -9 -9 -8 0 -12 4 -9 9 3 4 7 8 9 8 2 0 6 -4 9 -8z m-1619
-41 c3 -5 2 -12 -3 -15 -5 -3 -9 1 -9 9 0 17 3 19 12 6z m165 3 c0 -8 -19 -13
-24 -6 -3 5 1 9 9 9 8 0 15 -2 15 -3z m80 -4 c0 -5 -5 -10 -11 -10 -5 0 -7 5
-4 10 3 6 8 10 11 10 2 0 4 -4 4 -10z m800 6 c0 -3 -4 -8 -10 -11 -5 -3 -10
-1 -10 4 0 6 5 11 10 11 6 0 10 -2 10 -4z m74 -4 c3 -5 -1 -9 -9 -9 -8 0 -12
4 -9 9 3 4 7 8 9 8 2 0 6 -4 9 -8z m321 -2 c3 -5 1 -10 -4 -10 -6 0 -11 5 -11
10 0 6 2 10 4 10 3 0 8 -4 11 -10z m85 4 c0 -8 -19 -13 -24 -6 -3 5 1 9 9 9 8
0 15 -2 15 -3z m-2950 -80 c0 -8 -19 -13 -24 -6 -3 5 1 9 9 9 8 0 15 -2 15 -3z
m1430 -4 c0 -5 -5 -10 -11 -10 -5 0 -7 5 -4 10 3 6 8 10 11 10 2 0 4 -4 4 -10z
m1360 4 c0 -8 -19 -13 -24 -6 -3 5 1 9 9 9 8 0 15 -2 15 -3z m84 -2 c3 -5 -1
-9 -9 -9 -8 0 -12 4 -9 9 3 4 7 8 9 8 2 0 6 -4 9 -8z m76 -2 c0 -5 -2 -10 -4
-10 -3 0 -8 5 -11 10 -3 6 -1 10 4 10 6 0 11 -4 11 -10z m-2045 -29 c3 -5 2
-12 -3 -15 -5 -3 -9 1 -9 9 0 17 3 19 12 6z m2089 -89 c3 -5 -1 -9 -9 -9 -8 0
-12 4 -9 9 3 4 7 8 9 8 2 0 6 -4 9 -8z m-2474 -36 c0 -2 -8 -10 -17 -17 -16
-13 -17 -12 -4 4 13 16 21 21 21 13z m560 -42 c0 -8 -19 -13 -24 -6 -3 5 1 9
9 9 8 0 15 -2 15 -3z m-605 -24 c3 -6 -1 -7 -9 -4 -18 7 -21 14 -7 14 6 0 13
-4 16 -10z m155 -4 c0 -2 -8 -10 -17 -17 -16 -13 -17 -12 -4 4 13 16 21 21 21
13z m-876 -14 c3 -5 -1 -9 -9 -9 -8 0 -12 4 -9 9 3 4 7 8 9 8 2 0 6 -4 9 -8z
m593 -7 c0 -8 -4 -12 -9 -9 -5 3 -6 10 -3 15 9 13 12 11 12 -6z m518 5 c3 -5
1 -10 -4 -10 -6 0 -11 5 -11 10 0 6 2 10 4 10 3 0 8 -4 11 -10z m-474 -77 c13
-16 12 -17 -3 -4 -17 13 -22 21 -14 21 2 0 10 -8 17 -17z m1039 -3 c0 -5 -5
-10 -11 -10 -5 0 -7 5 -4 10 3 6 8 10 11 10 2 0 4 -4 4 -10z m520 4 c0 -8 -19
-13 -24 -6 -3 5 1 9 9 9 8 0 15 -2 15 -3z m-1479 -41 c13 -16 12 -17 -3 -4
-17 13 -22 21 -14 21 2 0 10 -8 17 -17z m-125 -38 c-1 -8 -5 -17 -8 -21 -5 -4
-4 16 1 34 3 9 9 -1 7 -13z m1404 1 c0 -3 -4 -8 -10 -11 -5 -3 -10 -1 -10 4 0
6 5 11 10 11 6 0 10 -2 10 -4z m-1360 -40 c0 -2 -7 -7 -16 -10 -8 -3 -12 -2
-9 4 6 10 25 14 25 6z m-269 -43 c-12 -20 -14 -14 -5 12 4 9 9 14 11 11 3 -2
0 -13 -6 -23z m106 20 c-4 -3 -1 -13 6 -22 11 -14 10 -14 -5 -2 -16 12 -16 31
-1 31 4 0 3 -3 0 -7z m1923 -23 c0 -5 -5 -10 -11 -10 -5 0 -7 5 -4 10 3 6 8
10 11 10 2 0 4 -4 4 -10z m-2060 -20 c0 -5 -5 -10 -11 -10 -5 0 -7 5 -4 10 3
6 8 10 11 10 2 0 4 -4 4 -10z m1856 -5 c-1 -8 -5 -17 -8 -21 -5 -4 -4 16 1 34
3 9 9 -1 7 -13z m-1762 -13 c3 -5 -1 -9 -9 -9 -8 0 -12 4 -9 9 3 4 7 8 9 8 2
0 6 -4 9 -8z m1846 -2 c0 -5 -5 -10 -11 -10 -5 0 -7 5 -4 10 3 6 8 10 11 10 2
0 4 -4 4 -10z m-1985 -69 c3 -5 2 -12 -3 -15 -5 -3 -9 1 -9 9 0 17 3 19 12 6z
m-940 -120 c3 -5 2 -12 -3 -15 -5 -3 -9 1 -9 9 0 17 3 19 12 6z m-398 -176 c0
-8 -4 -12 -9 -9 -5 3 -6 10 -3 15 9 13 12 11 12 -6z m157 7 c3 -5 -1 -9 -9 -9
-8 0 -12 4 -9 9 3 4 7 8 9 8 2 0 6 -4 9 -8z m-310 -160 c3 -5 -1 -9 -9 -9 -8
0 -12 4 -9 9 3 4 7 8 9 8 2 0 6 -4 9 -8z m-1449 -71 c3 -5 2 -12 -3 -15 -5 -3
-9 1 -9 9 0 17 3 19 12 6z m639 -89 c3 -5 -1 -9 -9 -9 -8 0 -12 4 -9 9 3 4 7
8 9 8 2 0 6 -4 9 -8z m561 -71 c3 -5 2 -12 -3 -15 -5 -3 -9 1 -9 9 0 17 3 19
12 6z m-231 -9 c3 -5 -1 -9 -9 -9 -8 0 -12 4 -9 9 3 4 7 8 9 8 2 0 6 -4 9 -8z"/>
<path d="M5915 6701 c-3 -5 -2 -12 3 -15 5 -3 9 1 9 9 0 17 -3 19 -12 6z"/>
<path d="M5886 6682 c-3 -5 1 -9 9 -9 8 0 12 4 9 9 -3 4 -7 8 -9 8 -2 0 -6 -4
-9 -8z"/>
<path d="M5940 6686 c0 -2 7 -6 15 -10 8 -3 15 -1 15 4 0 6 -7 10 -15 10 -8 0
-15 -2 -15 -4z"/>
<path d="M6060 6656 c0 -2 9 -6 20 -9 11 -3 18 -1 14 4 -5 9 -34 13 -34 5z"/>
<path d="M5955 6630 l-30 -8 27 -1 c15 0 30 4 33 9 3 6 5 9 3 9 -2 -1 -16 -5
-33 -9z"/>
<path d="M6038 6623 c7 -3 16 -2 19 1 4 3 -2 6 -13 5 -11 0 -14 -3 -6 -6z"/>
<path d="M6077 6619 c7 -7 15 -10 18 -7 3 3 -2 9 -12 12 -14 6 -15 5 -6 -5z"/>
<path d="M6098 6563 c7 -3 16 -2 19 1 4 3 -2 6 -13 5 -11 0 -14 -3 -6 -6z"/>
<path d="M5978 6533 c7 -3 16 -2 19 1 4 3 -2 6 -13 5 -11 0 -14 -3 -6 -6z"/>
<path d="M5901 6521 c-7 -5 -9 -11 -5 -14 5 -3 15 1 22 9 14 16 5 18 -17 5z"/>
<path d="M5174 2409 c-3 -6 -2 -15 3 -20 5 -5 9 -1 9 11 0 23 -2 24 -12 9z"/>
<path d="M5174 2341 c0 -17 4 -31 9 -31 4 0 5 12 3 26 -7 38 -14 40 -12 5z"/>
</g>
</svg>
