<?xml version="1.0" encoding="utf-8"?>
<!-- Generator: Adobe Illustrator 19.0.0, SVG Export Plug-In . SVG Version: 6.00 Build 0)  -->
<svg version="1.1" id="Layer_1" xmlns="http://www.w3.org/2000/svg" xmlns:xlink="http://www.w3.org/1999/xlink" x="0px" y="0px"
	 viewBox="0 0 960 560" style="enable-background:new 0 0 960 560;" xml:space="preserve">
<style type="text/css">
	.st0{fill:#CCCCCC;stroke:#FFFFFF;stroke-miterlimit:10;}
</style>
<g id="XMLID_2_">
	<path id="XMLID_1_" class="st0" d="M182,112H19c-5,0-9-4-9-9V20c0-5,4-9,9-9h163c5,0,9,4,9,9v83C191,108,187,112,182,112z"/>
	<path id="XMLID_3_" class="st0" d="M385,112H222c-5,0-9-4-9-9V20c0-5,4-9,9-9h163c5,0,9,4,9,9v83C394,108,390,112,385,112z"/>
</g>
<g id="XMLID_5_">
	<path id="XMLID_7_" class="st0" d="M182,229.5H19c-5,0-9-4-9-9v-83c0-5,4-9,9-9h163c5,0,9,4,9,9v83C191,225.5,187,229.5,182,229.5z
		"/>
	<path id="XMLID_6_" class="st0" d="M385,229.5H222c-5,0-9-4-9-9v-83c0-5,4-9,9-9h163c5,0,9,4,9,9v83C394,225.5,390,229.5,385,229.5
		z"/>
</g>
</svg>
