<?xml version="1.0" encoding="utf-8"?>
<!-- Generator: Adobe Illustrator 19.0.0, SVG Export Plug-In . SVG Version: 6.00 Build 0)  -->
<svg version="1.1" id="Layer_1" xmlns="http://www.w3.org/2000/svg" xmlns:xlink="http://www.w3.org/1999/xlink" x="0px" y="0px"
	 viewBox="0 0 500 500" style="enable-background:new 0 0 500 500;" xml:space="preserve">
<style type="text/css">
	.st0{opacity:0.75;fill:#F4CCA9;}
	.st1{opacity:0.65;fill:#000066;}
	.st2{opacity:0.67;fill:#FFFFFF;}
	.st3{opacity:0.67;fill:#F9F8F7;}
	.st4{opacity:0.67;fill:#CCCCCC;}
	.st5{opacity:0.89;fill:#EFECE6;}
	.st6{opacity:0.67;fill:#1A1A1A;}
	.st7{fill:#1A1A1C;}
	.st8{opacity:0.67;fill:#009245;}
	.st9{opacity:0.67;fill:none;stroke:#2A2A35;stroke-width:0.5;stroke-miterlimit:10;}
	.st10{opacity:0.3;fill:#000033;}
	.st11{opacity:0.39;fill:#2E9BE5;}
	.st12{opacity:0.39;fill:#33CC99;}
	.st13{opacity:0.41;fill:#FFDD71;}
	.st14{opacity:0.72;fill:#0AE596;}
	.st15{opacity:0.72;fill:#92A362;}
	.st16{opacity:0.6;fill:#498237;}
	.st17{opacity:0.64;fill:#FFFC85;stroke:#FFFFFF;stroke-miterlimit:10;}
	.st18{opacity:0.17;}
	.st19{fill:none;stroke:#0B0B6D;stroke-miterlimit:10;}
	.st20{fill:#776C4F;}
	.st21{opacity:0.22;fill:#494438;}
	.st22{opacity:0.23;fill:#33CC99;}
	.st23{opacity:0.15;fill:#000066;}
	.st24{opacity:0.35;fill:#A57A19;}
	.st25{opacity:0.39;fill:#D3A42F;}
	.st26{fill:none;stroke:#4F4F4F;stroke-width:0.5;stroke-miterlimit:10;}
	.st27{fill:#4F4F4F;}
	.st28{font-family:'JosefinSans-BoldItalic';}
	.st29{font-size:90px;}
</style>
<g id="XMLID_3_">
	<path id="XMLID_2_" class="st0" d="M369,235c0,3.7-2.7,5.4-4,8.2c-1.4,3.1-2.3,7.1-3.5,10.3c-2.7,7.5-1.1,14.1,0.5,21.5
		c1.5,7.1,1.2,14.5,3.7,21.2c3.3,8.7,3.9,16.6,5.2,25.7c1.4,9.2,0.8,16.7-1.4,25.5c3.8,1.9,5.9-2.3,9.2-3.5c3-1.1,9.3-0.6,12.7-0.6
		c7,0,14.9,5,22,4.6c-0.3-3.9-6.2-6.5-9.5-8.2c2.3-0.4,4.7,0.2,6.9,0.3c-6.7-5.6-13.4-2.5-20.9-5.5c-8.6-3.4-10.4-10.4-12.8-18.4
		c-4.8-15.9-10.9-36.1-5.1-52.4c3.2-9.2,9.3-14.8,15.4-21.5c-3.5-4.2-14-5.8-19.4-7.1"/>
	<path id="XMLID_4_" class="st0" d="M404.5,236c1.5,4.8,3.8,6.9,2.5,12.5c-1.3,5.7-3.6,10.7-4.5,16.5c-0.3,2.1-1.4,6.5-0.4,8.5
		c1,2.2,4.2,3.5,5.6,6c1.4,2.6,2.4,4.4,3.9,6.9c2.1,3.5,4.5,9.1,3.6,7.4c4.5,9.1,10.9,17.5,15.5,26.5c1.8,3.6,3.7,9.3,1.3,13
		c-2.1,3.2-12.8,5.8-11.6,10.2c2.5-2.7,11.5-6.6,15.3-5.7c2.9,0.7,3.5,3.4,4.6,5.3c1.8,3.4,2.2,5.2,5.1,7.9c-0.7-3.2,2.3-4.7,2.4-8
		c2.9-0.5,5.2,1.1,7.9,1.5c2.9,0.4,6.1,0.1,9.1,0.4c6.2,0.5,13.7,1.6,18.8,5.6c-3-2-5.8-9.4-11.6-7.9c3.5-1.2,5.8-3,9.7-2.5
		c-4.6-0.7-6-3.8-11.1-2.7c-7.8,1.6-13.7,1.5-21.6-1.7c-9.2-3.7-12.3-14.1-17.1-22c-4.9-8.1-8.6-16.8-13.2-24.7
		c-5.5-9.4-2.9-20.2,1.3-29.9c2.7-6.2,7.6-13.5,12.2-18.5c4.4-4.6,10.8-8.5,10.3-15.5c-3.7-0.2-7,2.9-10.4,4.3
		c-4,1.6-8.3,2.4-12.5,3.4c-4.7,1.2-10,1.8-14.4,3.8"/>
	<path id="XMLID_1_" class="st1" d="M486.5,37.5c-9,0-13,1.6-20,6.5c-6.7,4.7-13.9,7.7-11.4,17.2c1.7,6.4,6.9,14.7,12,19.3
		c7.3,6.5,12.2,12.6,17,21.3c5,9,9.5,17.2,10.8,27.4c1,7.4,3.3,13.6,1.8,21.3c-1.8,9.2-3.3,17.4-6.3,26.4c-1.4,4.2-2.1,8.3-5,11.7
		c-1.7,2-3.7,3.2-5.2,5.3c-5,6.7-6.9,14-14.3,18.5c-5.8,3.6-10.6,8.6-16.1,12.6c-6.3,4.5-15.3,7.6-23,8.7c-9.7,1.5-18.7,4-28,7.4
		c-5.9,2.1-11,4.4-17.4,3.8c-7.8-0.7-9.2-3.9-14.3-8.5c-5.2-4.7-10.5-7.6-17.5-6.2c-7.2,1.5-14.3,2.6-21.5,3.2
		c-7,0.6-11.6-3.5-18-5.6c-5.7-1.9-8.6-1.8-12.8-6.3c0.4,0.1,0.8,0,1.1-0.3c-1.6-8-18.3-15.7-24.1-20.2c-6.2-4.8-13.5-12-17.9-18.1
		c4.5-0.7,9.8-2.4,13.8-4.5c6.2-3.3,10.1-8.6,15.9-12.4c11.7-7.6,26.2-8.8,37.8-16c14.3-8.9,27.4-15.3,43.8-19.8
		c17.4-4.7,35.7-5.7,53.6-5.7c6,0,14-1.2,20,0c4.4,0.8,6.2,4.4,9.1-1.6c4.7-9.9-2.6-15.9-4-25.1c-0.8-4.9-1.1-10.3-1.1-15.3
		c0.1-5.7-1.4-8.4-4-13.6c-5.9-12-5.4-24.1-3.5-36.8c0.7-5,1.1-8.8,6.1-11.4c4.4-2.3,16.2-2.5,20.4-0.5c3.8,1.8,5.6,6.6,8.6,9
		c3.5,2.8,15.2,4.2,12.5,10.8"/>
	<path id="XMLID_5_" class="st2" d="M466.5,40c4,0,6.7-0.7,10.5-1.5c3.5-0.8,6.9-0.5,10.4-0.8c-1.9-1-3.2-3.2-5-4.5
		c-2.4-1.7-5.7-3-8.3-3.5c-4.3-0.9-4,0.5-4.9,3.9c-0.5,2.1-2.3,4.5-3.4,6.3c0.7,0.3,1.3,0.3,2.1,0"/>
	<path id="XMLID_6_" class="st3" d="M442,29c0.7,0.5,0.5,3.8,1.2,5c1,1.9,2.3,2.6,4.1,3.3c3,1.2,7.5,2.8,10.4,1
		c-2.9-0.7-6.1-2.3-8.6-3.9c-2.6-1.7-3-5.7-6.9-5.6"/>
	<path id="XMLID_7_" class="st4" d="M448.3,26c2.3-0.3,4.9-0.8,7.2-0.8c-1.5-2.3-7.7-2.3-7.7,1c0.7-0.8,1.9-1,3-0.5"/>
	<path id="XMLID_8_" class="st5" d="M458.8,28.8c1.6,0.2,3.4,2.3,5,3c1.7,0.7,3.8,0.9,5.2,2.3c-2.8-1.6-5.1-6-9.7-5.5"/>
	<path id="XMLID_9_" class="st6" d="M447.5,30.4c-0.2-1.1,2.7-2.3,3.6-2.5c1.6-0.4,4-0.5,5.3,0.8c0.7,0.7,1,1.8,1.6,2.6
		c-0.8-0.9,0.2-1.9-0.2-3c-0.2-0.8-0.8-1.9-1.4-2.4c-2-1.6-6-0.4-8.1,0.5c-1.3,0.6-2.6,1.9-3.3,3.2c0.4,0.1,0.7,0.6,1,0.6
		c0.6,0.2,1-0.3,1.5-0.4"/>
	<path id="XMLID_10_" class="st7" d="M447.7,29.8c-0.7,0.9-0.5,2.6,0.1,3.6c0.8,1.3,2.7,1.8,4.1,1.8c1.7,0.1,3-0.5,4.5-1.2
		c0.5-0.2,1.7-1,1.9-1.6c0.1-0.5-0.5-1.4-0.8-1.9c-0.3-0.6-0.7-1.3-1.1-1.8c-0.6-0.6-1.1-0.7-2.2-1.2c-1.1,0.1-2.3,0.1-3.4,0.4
		C449.5,28.1,448.6,28.9,447.7,29.8"/>
	<path id="XMLID_11_" class="st8" d="M451.3,28.9c-0.6,0.4-1.2,0.7-1.4,1.5c-0.1,0.7-0.2,1.5-0.2,2.1c-0.1,1.6,1.7,2,3,2.4
		c0.9,0.2,1.3,0.4,2.2-0.1c0.7-0.4,1.5-0.7,1.9-1.4c0.9-1.4-0.1-2.8-0.8-3.9c-0.7-1-1.8-1.3-3-1.1c-0.4,0.1-0.8,0.2-1.2,0.4
		c-0.4,0.2-0.6,0.5-1,0.6"/>
	<path id="XMLID_13_" d="M451.5,29.4c-0.5,0.4-1.1,0.6-1.3,1.3c-0.1,0.6-0.1,1.3-0.2,1.9c-0.1,1.4,1.5,1.8,2.6,2.1
		c0.8,0.2,1.2,0.3,1.9-0.1c0.6-0.3,1.3-0.6,1.7-1.3c0.8-1.2-0.1-2.5-0.8-3.5c-0.6-0.9-1.6-1.1-2.7-1c-0.4,0.1-0.7,0.2-1,0.3
		c-0.3,0.1-0.5,0.4-0.9,0.5"/>
	<path id="XMLID_17_" class="st9" d="M428.7,12.8c0.6,0,1.1,1.3,1.4,1.8c0.6,1.1,1,1.8,2,2.6c1.7,1.4,3.6,2.6,5.3,3.9
		c1.2,0.9,2.4,2.4,3.7,3.1"/>
	<path id="XMLID_18_" class="st9" d="M422.7,22.1c3,0,5.8,1.7,8.7,2.4c1.4,0.3,2.9,0.3,4.3,0.5c1,0.2,2,0.6,2.9,0.8
		c0.5,0.1,1.1,0,1.6,0.2"/>
	<path id="XMLID_19_" class="st9" d="M423.3,26.7c2.9,0,6.1-0.5,8.9,0.1c1.4,0.3,2.8,0.3,4.2,0.7c1,0.3,2.1,0.8,3.1,0.8"/>
	<path id="XMLID_20_" class="st9" d="M421.1,35.5c-0.1-1.2,1.5-1.4,2.4-1.5c1.7-0.3,3.3-0.7,5-1c2-0.3,3.7-1.5,5.8-1.9
		c1.5-0.3,3.4-0.1,4.8-0.6"/>
	<path id="XMLID_21_" class="st10" d="M445.8,76.3c-0.3,3.2,2.4,7.7,3,10.9c0.9,4.7,2.2,9.4,3.5,13.9c0.6,2,1,4.2,1.5,6.3
		c0.6,1.9,1.6,3.1,2.6,4.9c2.1,3.9,4.4,9.7,3.5,14.2c-0.7,3.5-2.8,6.7-4.2,9.8c-1.4,3.1-1,6.8-2.6,9.8c-3.8,0.6-5.6-3.4-9.5-2
		c-2.5,0.9-4.3,1.9-7,2c-2.4,0.1-3.1,0.1-5,1.4c3.3-2.2,5.9-3.3,6.8-7.2c0.5-2.5,0.9-3.4,2.8-5.5c3.3-3.7,6.8-7.8,9.7-11.7
		c5.7-7.7-4.1-17.2-4.7-25.2c-0.5-6.8,0.2-13.7,0.2-20.5"/>
	<path id="XMLID_22_" class="st11" d="M424,154.8c-1.4,5.4-2.3,9.9-2.3,15.6c0,4.6,2.5,8.3,2.7,13c0.2,3,0.6,5.9-0.4,8.7
		c-1.2,3.3-3.3,6.4-5,9.4c-1.8,3.1-2.7,5-5.8,6.8c-4.6,2.7-9.4,5-14.2,7.5c-10.7,5.6-20.6,13.1-32.8,15.1c0.8-4.4,6.5-5.7,8.7-9.4
		c1.6-2.5,2.7-5.7,3.6-8.5c0.9-2.7,0.9-5.8,2.8-8c3.5-3.9,7.5-6.2,10-11.1c1.9-3.7,3.5-7.4,7.1-9.7c3.3-2.2,6.7-4.3,10.1-6.2
		c6.9-4,12.2-9.9,14.1-17.8"/>
	<path id="XMLID_23_" class="st12" d="M447.3,197.5c-7.9,3.5-14,9.2-22.7,11.1c-9.1,1.9-17.3,4.1-25.8,7.7c-3.7,1.5-7.1,4.8-10.7,6
		c4.4,0,9.2-0.3,13.5,0c-0.2,3.6-2.1,4.4-4.7,5.9c-2.2,1.3-3.9,3.7-6,4.8c7.8-1.3,15-2.5,22.5-5c7.5-2.5,15.8-1.7,22.3-6.7
		c7.2-5.5,10.2-15.7,11.7-24.3"/>
	<path id="XMLID_24_" class="st13" d="M391,194.5c-4.1-0.1-6.8,2.2-10.5,3.5c-4.2,1.4-8,2.9-12.2,4.3c-5.6,1.9-12.1,3.7-18,3.9
		c-6.3,0.2-12.7-0.2-18.9,0.7c-8.8,1.3-18.3,0.9-27.2,0.8c1.8,0.6,3.3,1.8,5.2,2.3c3.7,1,7.5,1.4,11.1,2.6c6.2,2.1,13,1.3,19.5,1.3
		c4.6,0,9.3,0,13.9,0c8.5,0,18.1,0.5,24.7-5c3.2-2.6,4.6-4.5,6.9-8c1.7-2.6,3.1-5.1,5.9-6.7"/>
	<path id="XMLID_25_" class="st14" d="M38,261.3c9.3,13.4,32.8,13.3,47.1,14.7c16.9,1.6,29.7-0.8,45.5-6.9
		c8.1-3.1,17.7-4.6,25.5-8.6c6-3.1,11.9-8.1,17.3-11.9c10-7,23.9-9,32.5-18.1c3.9-4.1,6.5-8.3,10.9-12c6.4-5.3,13.7-9.5,20.6-13.9
		c10.4-6.6,21.6-15.1,32.9-19.9c15.9-6.7,35.8-7.8,50.6-16.8c-12.3,11-26.9,17.3-36.3,31.4c-7.6,11.3-12.3,22.8-22.7,32
		c-10.6,9.3-22,18.2-32.2,27.8c-18.8,17.7-42.3,34.6-67.7,41.4c-21.7,5.8-38.2,2.2-59.9-1.8c-31.6-5.9-66.9-5.9-98.4,0.6
		c5.8-8.8,24.1-16.1,33.9-19.8c8.2-3.2,17.6-5.7,26.5-5.8"/>
	<path id="XMLID_26_" class="st15" d="M300,193.5c-2.9,8.6-11.5,13.1-18.5,18.2c-8.4,6.1-15.9,14.3-23.5,21.9
		c-10.2,10.1-11.2,24.3-24.4,32.4c-14.5,8.8-31.4,16.4-46.9,23c-11.2,4.8-21.9,10.7-33.4,15c-9,3.4-16.5,4.4-25.6,5.9
		c5.2-15.1,27.8-21.6,40.9-28.4c14.4-7.5,31.1-14.8,39.2-29.4c6.8-12.2,25.9-20,37.9-26.5c11.1-6,22.2-13.8,34.3-17.7
		c6.7-2.2,12.2-3.5,18.5-6.5"/>
	<path id="XMLID_27_" class="st16" d="M312.5,190c-0.7,8.6-8.6,17.8-11.5,25.9c-3.2,9-7.9,12.3-15.9,17.4c-11,7.1-23.6,12-35.2,18.1
		c-11.8,6.2-22.5,15-35.2,19.6c-15,5.5-35.5,10.1-51.4,4.9c13.4-10.1,33.4-12.5,48.9-18.3c17-6.3,33.1-13.4,45.1-27.6
		c7.3-8.6,11.4-17.2,21-24.3c7.3-5.4,14-11.6,21.8-16.3c6.3-3.8,12.9-4.6,19.5-7.1c-1.8,4.7-5.6,7.6-8.7,11.1"/>
	<path id="XMLID_28_" class="st17" d="M447.5,126c-12.1,0-24.1-0.8-36.1-1c-10.4-0.1-20.9,2.6-31.2,4c-32.3,4.5-63.6,19.9-90.7,38
		c-9.2,6.1-19.4,11.3-27,19.5c-6.6,7.2-7.1,16.5-11.8,24.6c5.3-0.1,11.8-6.8,16.8-9c4.2-1.8,8.4-3,12.5-5.1
		c11-5.8,20.4-10.1,32.6-12.5c1.5,4.8-3,6.3,0,10.8c1.6,2.3,12.1,8.7,15.4,9.7c-3.9-5.1-8.3-11.9-4.8-18.7c6.2,5.4,9.2,11.1,16,15.7
		c-2.3-6.4-1.1-13.1-0.8-19.7c2.1,4.7,1.4,10,3.4,14.4c3.1-7.1,4.2-14.7,8.6-21.2c3.5-5.2,12.6-9.2,19-6c3.4,1.7,2.9,4.9,4.9,6.9
		c3.2,3.1,7.2,2,11.9,2.1c8,0.2,10.3,3.6,19.3-1.2c5.5-2.9,5.8-6.5,8.4-11.6c3.6-6.9,6.4-10.8,7.9-18.7c0.9-4.8,1.8-11.2,6.1-14.5
		c3.8-2.9,11.5-4.9,16-6.5"/>
	<g id="XMLID_29_" class="st18">
		<g id="XMLID_80_">
			<path id="XMLID_36_" class="st19" d="M346.7,174.7"/>
		</g>
	</g>
	<g id="XMLID_30_" class="st18">
		<g id="XMLID_75_">
			<path id="XMLID_32_" class="st19" d="M210.3,143.7"/>
		</g>
	</g>
	<path id="XMLID_33_" class="st20" d="M323.9,177.2c0.2,0.3-0.1,0.7-0.3,0.9c-0.2,0.3-0.2,0.4-0.2,0.8c0,0.5,0.2,1.2,0.5,1.6
		c-1-0.3-2.1-1.5-1.8-2.6c0.2-1.1,1.4-0.9,2.2-1.2c-0.2,0.3-0.3,0.5-0.5,0.8"/>
	<path id="XMLID_73_" class="st20" d="M291.9,171.2c0.2,0.3-0.1,0.7-0.3,0.9c-0.2,0.3-0.2,0.4-0.2,0.8c0,0.5,0.2,1.2,0.5,1.6
		c-1-0.3-2.1-1.5-1.8-2.6c0.2-1.1,1.4-0.9,2.2-1.2c-0.2,0.3-0.3,0.5-0.5,0.8"/>
	<path id="XMLID_67_" class="st20" d="M382.9,162.1c0.3,0.5-0.2,1.2-0.5,1.7c-0.3,0.6-0.4,0.8-0.3,1.5c0.1,0.9,0.5,2.2,1,2.9
		c-1.9-0.6-3.9-2.8-3.4-4.9c0.5-2,2.6-1.8,4.2-2.2c-0.3,0.6-0.7,0.9-0.9,1.5"/>
	<path id="XMLID_66_" class="st20" d="M378.9,135.1c0.3,0.5-0.2,1.2-0.5,1.7c-0.3,0.6-0.4,0.8-0.3,1.5c0.1,0.9,0.5,2.2,1,2.9
		c-1.9-0.6-3.9-2.8-3.4-4.9c0.5-2,2.6-1.8,4.2-2.2c-0.3,0.6-0.7,0.9-0.9,1.5"/>
	<path id="XMLID_65_" class="st20" d="M341.9,164.1c0.3,0.5-0.2,1.2-0.5,1.7c-0.3,0.6-0.4,0.8-0.3,1.5c0.1,0.9,0.5,2.2,1,2.9
		c-1.9-0.6-3.9-2.8-3.4-4.9c0.5-2,2.6-1.8,4.2-2.2c-0.3,0.6-0.7,0.9-0.9,1.5"/>
	<path id="XMLID_40_" class="st20" d="M322.8,160.1c0.3,0.5-0.2,1.2-0.4,1.7c-0.3,0.6-0.4,0.8-0.3,1.5c0.1,0.9,0.5,2.2,1.1,2.9
		c-2-0.6-4-2.7-3.6-4.8c0.4-2.1,2.6-1.9,4.1-2.4c-0.3,0.6-0.6,0.9-0.9,1.5"/>
	<path id="XMLID_34_" class="st20" d="M336.2,156.6c-4.9-9.3-6.7-9.4-7.5-8.4c1,1.5,1.2,0.8,1.9,1.4c0.7,0.6,1.5,1.6,2.2,2.5
		c1.4,1.6,3.6,5.4,4.5,5.9c-1-2-1.6-2.6-2.2-3.4"/>
	<path id="XMLID_70_" class="st20" d="M388.9,156.1c-9.4-6.2-11.2-5.2-11.5-3.8c1.7,0.9,1.6,0.1,2.5,0.3c0.9,0.2,2.2,0.7,3.4,1.1
		c2.1,0.7,6.2,3.2,7.3,3.2c-2-1.4-2.9-1.6-3.9-2"/>
	<path id="XMLID_69_" class="st20" d="M356.6,162.4c2.7,2.9,0.3,6.9-1.8,9.6c-0.2-0.9,0.8-2,1.1-2.9c0.3-0.9,0.4-1.9,0.6-2.9
		c0.3-1.7-0.6-3.3,0.1-4.9c0.6,0.6,0.4,1.4,0.3,2.1"/>
	<path id="XMLID_68_" class="st20" d="M393.6,127.4c2.7,2.9,0.3,6.9-1.8,9.6c-0.2-0.9,0.8-2,1.1-2.9c0.3-0.9,0.4-1.9,0.6-2.9
		c0.3-1.7-0.6-3.3,0.1-4.9c0.6,0.6,0.4,1.4,0.3,2.1"/>
	<path id="XMLID_35_" class="st20" d="M296.6,184.5c0.3,0.3,0.4,1.3,0.5,1.7c0.1,0.8,0.2,1.6,0.7,2.3c-0.4-0.2-0.4-0.7-0.9-0.8
		c-0.3-0.6-0.3-1.4-0.4-2.1c-0.2-1-0.2-1.4,0.6-1.9c0.1,0.4-0.1,1.1-0.3,1.4"/>
	<g id="XMLID_61_">
		<path id="XMLID_64_" class="st20" d="M402.3,164.6c0.6,0.1,0.7,1,0.9,1.5c0.2,0.6,0.3,0.8,0.9,1.3c0.7,0.6,1.9,1.2,2.8,1.3
			c-1.8,1-4.7,0.9-5.9-0.9c-1.2-1.7,0.5-3.1,1.2-4.6c0.2,0.6,0.2,1.1,0.4,1.7"/>
		<path id="XMLID_63_" class="st20" d="M413.9,165.7c3.9,0.8,4.2,5.5,4,8.9c-0.7-0.7-0.5-2.1-0.8-3c-0.3-0.9-0.8-1.8-1.2-2.7
			c-0.7-1.5-2.4-2.4-2.7-4.1c0.8,0.1,1.1,0.9,1.5,1.6"/>
		<path id="XMLID_62_" class="st20" d="M406.4,155.5c0.7,0.6,0.9,2.5,1,3.4c0.2,1.6,0.5,3.3,1.4,4.7c-0.8-0.3-0.9-1.4-1.8-1.7
			c-0.5-1.3-0.6-2.8-0.9-4.1c-0.4-1.9-0.5-2.7,1.2-3.8c0.1,0.9-0.1,2.1-0.5,2.8"/>
	</g>
	<g id="XMLID_57_">
		<path id="XMLID_60_" class="st20" d="M347.3,149.6c0.6,0.1,0.7,1,0.9,1.5c0.2,0.6,0.3,0.8,0.9,1.3c0.7,0.6,1.9,1.2,2.8,1.3
			c-1.8,1-4.7,0.9-5.9-0.9c-1.2-1.7,0.5-3.1,1.2-4.6c0.2,0.6,0.2,1.1,0.4,1.7"/>
		<path id="XMLID_59_" class="st20" d="M358.9,150.7c3.9,0.8,4.2,5.5,4,8.9c-0.7-0.7-0.5-2.1-0.8-3c-0.3-0.9-0.8-1.8-1.2-2.7
			c-0.7-1.5-2.4-2.4-2.7-4.1c0.8,0.1,1.1,0.9,1.5,1.6"/>
		<path id="XMLID_58_" class="st20" d="M351.4,140.5c0.7,0.6,0.9,2.5,1,3.4c0.2,1.6,0.5,3.3,1.4,4.7c-0.8-0.3-0.9-1.4-1.8-1.7
			c-0.5-1.3-0.6-2.8-0.9-4.1c-0.4-1.9-0.5-2.7,1.2-3.8c0.1,0.9-0.1,2.1-0.5,2.8"/>
	</g>
	<g id="XMLID_53_">
		<path id="XMLID_56_" class="st20" d="M331.6,182c0.5,0.1,0.6,0.9,0.7,1.3c0.2,0.5,0.3,0.7,0.7,1.1c0.6,0.5,1.6,1,2.4,1.1
			c-1.5,0.8-4,0.7-5-0.8c-1-1.5,0.5-2.7,1.1-3.9c0.2,0.5,0.2,0.9,0.4,1.4"/>
		<path id="XMLID_55_" class="st20" d="M341.5,183c3.3,0.7,3.6,4.7,3.4,7.6c-0.6-0.6-0.4-1.8-0.7-2.6c-0.3-0.8-0.7-1.5-1-2.3
			c-0.6-1.3-2-2-2.3-3.5c0.7,0.1,1,0.7,1.3,1.3"/>
		<path id="XMLID_54_" class="st20" d="M335.1,174.3c0.6,0.5,0.8,2.1,0.8,2.9c0.1,1.4,0.4,2.8,1.2,4c-0.7-0.3-0.7-1.2-1.5-1.4
			c-0.4-1.1-0.5-2.4-0.7-3.5c-0.3-1.6-0.4-2.3,1.1-3.3c0.1,0.7-0.1,1.8-0.5,2.4"/>
	</g>
	<g id="XMLID_45_">
		<path id="XMLID_52_" class="st20" d="M299.3,171.6c0.6,0.1,0.7,1,0.9,1.5c0.2,0.6,0.3,0.8,0.9,1.3c0.7,0.6,1.9,1.2,2.8,1.3
			c-1.8,1-4.7,0.9-5.9-0.9c-1.2-1.7,0.5-3.1,1.2-4.6c0.2,0.6,0.2,1.1,0.4,1.7"/>
		<path id="XMLID_47_" class="st20" d="M310.9,172.7c3.9,0.8,4.2,5.5,4,8.9c-0.7-0.7-0.5-2.1-0.8-3c-0.3-0.9-0.8-1.8-1.2-2.7
			c-0.7-1.5-2.4-2.4-2.7-4.1c0.8,0.1,1.1,0.9,1.5,1.6"/>
		<path id="XMLID_46_" class="st20" d="M303.4,162.5c0.7,0.6,0.9,2.5,1,3.4c0.2,1.6,0.5,3.3,1.4,4.7c-0.8-0.3-0.9-1.4-1.8-1.7
			c-0.5-1.3-0.6-2.8-0.9-4.1c-0.4-1.9-0.5-2.7,1.2-3.8c0.1,0.9-0.1,2.1-0.5,2.8"/>
	</g>
	<path id="XMLID_37_" class="st21" d="M415.7,140.3c-4.3,0.5-6,4-8.3,7c-1.7,2.2-3.8,3.7-6.5,4.9c-3.3,1.5-5.6,1.8-8.8,0.1
		c-5.2-2.7-9.1-2.4-15.1-2.7c5.3-3.6,11.8-5.9,17.9-7.4c7.1-1.7,13.3-4.6,20.4-2c-0.5,0.6-1.3,1.2-2.1,1.4"/>
	<path id="XMLID_71_" class="st22" d="M425.7,137.3c-3.7,0.4-7.5-3.6-11-4.6c-3-0.9-6.3-0.7-9.5-1c-5.3-0.6-9.2-4.4-14.4-5.3
		c9.3,0.1,19,0.2,28.3-0.3c4.4-0.2,8.8-0.2,13.3-0.3c3.5-0.1,9-1.7,11.7,1.5c-2.6,2.8-7.3,4.5-10.4,6.8c-3,2.2-5.4,3.6-9.3,3.4"/>
	<path id="XMLID_12_" class="st23" d="M429,13.5c0-1.4,0.5-5.3-2.2-4.7c-1.2,0.2-1.2,1.9-1.5,2.7c-0.4,0.9-1.1,2.1-1.1,3
		c1.2,0.3,2.1,0.1,3.2-0.3c1.1-0.4,1.6-0.4,1.6-1.6"/>
	<path id="XMLID_14_" class="st23" d="M422.8,17.2c0.7,0.2,1.5,0.8,1.7,1.7c0.1,0.4,0,1.1-0.1,1.5c-0.2,0.5-0.7,0.8-0.9,1.2
		c-0.5,1.1,0.3,2.1-1.5,2c-1,0-1.9-0.4-2.8,0.2c-0.2-1,0.9-2.3,1.2-3.2c0.2-0.6,0.4-1.2,0.9-1.6c0.6-0.5,1-0.6,1.1-1.5
		c0.3-0.1,0.6-0.3,0.9-0.4"/>
	<path id="XMLID_15_" class="st23" d="M420.2,23.1c-0.5,0.9-0.7,2.1-1.2,3c-0.7,1.3-0.9,1.8,0.9,2.4c1.4,0.5,2.6,0.5,3.5-0.7
		c0.3-0.4,0.7-1,0.9-1.4c0.1-0.5-0.2-0.9-0.4-1.5c-0.3-0.9-0.5-1.5-1.5-1.8c-0.5-0.2-2-0.4-2.3,0.1"/>
	<path id="XMLID_16_" class="st23" d="M421,29c-0.1,0.9-1.4,2.5-2,3.1c-0.8,0.8-1.3,1.4-1.2,2.6c0.1,1.7,0.9,3.7,2,5
		c0.7,0.8,1.5,1.4,1.9,2.5c0.6-0.5,0.8-2.3,0.8-3.1c0.1-1.1-0.1-2.1-0.3-3.2c-0.2-0.9-0.4-1.9-0.4-2.8c-0.1-1.2,0.8-2,1.3-3
		c0.6-1.3-0.9-1.9-2-1.5"/>
	<path id="XMLID_39_" class="st24" d="M369,239c-11,5.6-9.6,25.4-7.5,36c2.8,14.3,5.6,28.5,7.1,43.3c1,9.7,1,18.7,1,28.4
		c-0.2-5.8,2.7-11.3,3-17.3c0.4-7.8-1.1-16.6-2.5-24.3c-1.8-9.9-5.4-19.4-5.5-29.5C364.4,263.4,370.1,251.2,369,239"/>
	<path id="XMLID_72_" class="st25" d="M407,238.5c10.1,4.9-8.9,27.2-4.9,35c1.1,2.2,5.1,4.1,6.7,6.7c2,3.4,3.3,7.3,5.1,10.7
		c4,7.4,7.5,15.2,12.2,22.1c4.5,6.6,12,16.8,2.4,22.9c5.5,1.3,5.7-11.8,4.4-14.8c-2.7-6.6-8.8-12.2-11.8-18.8
		c-3.1-7.1-5.8-14.8-9.7-21.5c-4.3-7.4-7.5-11.4-5.9-20.8c1-6.1,5.3-15.1,1.9-21"/>
	<path id="XMLID_74_" class="st26" d="M469,35c2.7,0,5.5-0.2,8.2-0.2c3.2,0,6,2.4,9.2,1.8"/>
</g>
<text id="XMLID_31_" transform="matrix(1 0 0 1 24 161.3763)" class="st27 st28 st29">on-fleek</text>
</svg>
