<?xml version="1.0" encoding="utf-8"?>
<!-- Generator: Adobe Illustrator 19.0.0, SVG Export Plug-In . SVG Version: 6.00 Build 0)  -->
<svg version="1.1" id="Layer_1" xmlns="http://www.w3.org/2000/svg" xmlns:xlink="http://www.w3.org/1999/xlink" x="0px" y="0px"
	 viewBox="0 0 960 560" style="enable-background:new 0 0 960 560;" xml:space="preserve">
<style type="text/css">
	.st0{fill:#CCCCCC;stroke:#FFFFFF;stroke-width:0.4622;stroke-miterlimit:10;}
</style>
<g id="XMLID_8_">
	<g id="XMLID_4_">
		<g id="XMLID_2_">
			<path id="XMLID_1_" class="st0" d="M89.5,57.7H14.2c-2.3,0-4.2-1.9-4.2-4.2V15.2c0-2.3,1.9-4.2,4.2-4.2h75.3
				c2.3,0,4.2,1.9,4.2,4.2v38.4C93.7,55.8,91.8,57.7,89.5,57.7z"/>
			<path id="XMLID_3_" class="st0" d="M183.3,57.7H108c-2.3,0-4.2-1.9-4.2-4.2V15.2c0-2.3,1.9-4.2,4.2-4.2h75.3
				c2.3,0,4.2,1.9,4.2,4.2v38.4C187.5,55.8,185.6,57.7,183.3,57.7z"/>
		</g>
		<g id="XMLID_5_">
			<path id="XMLID_7_" class="st0" d="M89.5,112H14.2c-2.3,0-4.2-1.9-4.2-4.2V69.5c0-2.3,1.9-4.2,4.2-4.2h75.3
				c2.3,0,4.2,1.9,4.2,4.2v38.4C93.7,110.1,91.8,112,89.5,112z"/>
			<path id="XMLID_6_" class="st0" d="M183.3,112H108c-2.3,0-4.2-1.9-4.2-4.2V69.5c0-2.3,1.9-4.2,4.2-4.2h75.3
				c2.3,0,4.2,1.9,4.2,4.2v38.4C187.5,110.1,185.6,112,183.3,112z"/>
		</g>
	</g>
	<g id="XMLID_9_">
		<g id="XMLID_13_">
			<path id="XMLID_15_" class="st0" d="M279.5,57.7h-75.3c-2.3,0-4.2-1.9-4.2-4.2V15.2c0-2.3,1.9-4.2,4.2-4.2h75.3
				c2.3,0,4.2,1.9,4.2,4.2v38.4C283.7,55.8,281.8,57.7,279.5,57.7z"/>
			<path id="XMLID_14_" class="st0" d="M373.3,57.7H298c-2.3,0-4.2-1.9-4.2-4.2V15.2c0-2.3,1.9-4.2,4.2-4.2h75.3
				c2.3,0,4.2,1.9,4.2,4.2v38.4C377.5,55.8,375.6,57.7,373.3,57.7z"/>
		</g>
		<g id="XMLID_10_">
			<path id="XMLID_12_" class="st0" d="M279.5,112h-75.3c-2.3,0-4.2-1.9-4.2-4.2V69.5c0-2.3,1.9-4.2,4.2-4.2h75.3
				c2.3,0,4.2,1.9,4.2,4.2v38.4C283.7,110.1,281.8,112,279.5,112z"/>
			<path id="XMLID_11_" class="st0" d="M373.3,112H298c-2.3,0-4.2-1.9-4.2-4.2V69.5c0-2.3,1.9-4.2,4.2-4.2h75.3
				c2.3,0,4.2,1.9,4.2,4.2v38.4C377.5,110.1,375.6,112,373.3,112z"/>
		</g>
	</g>
</g>
<g id="XMLID_17_">
	<g id="XMLID_25_">
		<g id="XMLID_29_">
			<path id="XMLID_31_" class="st0" d="M89.5,168.7H14.2c-2.3,0-4.2-1.9-4.2-4.2v-38.4c0-2.3,1.9-4.2,4.2-4.2h75.3
				c2.3,0,4.2,1.9,4.2,4.2v38.4C93.7,166.8,91.8,168.7,89.5,168.7z"/>
			<path id="XMLID_30_" class="st0" d="M183.3,168.7H108c-2.3,0-4.2-1.9-4.2-4.2v-38.4c0-2.3,1.9-4.2,4.2-4.2h75.3
				c2.3,0,4.2,1.9,4.2,4.2v38.4C187.5,166.8,185.6,168.7,183.3,168.7z"/>
		</g>
		<g id="XMLID_26_">
			<path id="XMLID_28_" class="st0" d="M89.5,223H14.2c-2.3,0-4.2-1.9-4.2-4.2v-38.4c0-2.3,1.9-4.2,4.2-4.2h75.3
				c2.3,0,4.2,1.9,4.2,4.2v38.4C93.7,221.1,91.8,223,89.5,223z"/>
			<path id="XMLID_27_" class="st0" d="M183.3,223H108c-2.3,0-4.2-1.9-4.2-4.2v-38.4c0-2.3,1.9-4.2,4.2-4.2h75.3
				c2.3,0,4.2,1.9,4.2,4.2v38.4C187.5,221.1,185.6,223,183.3,223z"/>
		</g>
	</g>
	<g id="XMLID_18_">
		<g id="XMLID_22_">
			<path id="XMLID_24_" class="st0" d="M279.5,168.7h-75.3c-2.3,0-4.2-1.9-4.2-4.2v-38.4c0-2.3,1.9-4.2,4.2-4.2h75.3
				c2.3,0,4.2,1.9,4.2,4.2v38.4C283.7,166.8,281.8,168.7,279.5,168.7z"/>
			<path id="XMLID_23_" class="st0" d="M373.3,168.7H298c-2.3,0-4.2-1.9-4.2-4.2v-38.4c0-2.3,1.9-4.2,4.2-4.2h75.3
				c2.3,0,4.2,1.9,4.2,4.2v38.4C377.5,166.8,375.6,168.7,373.3,168.7z"/>
		</g>
		<g id="XMLID_19_">
			<path id="XMLID_21_" class="st0" d="M279.5,223h-75.3c-2.3,0-4.2-1.9-4.2-4.2v-38.4c0-2.3,1.9-4.2,4.2-4.2h75.3
				c2.3,0,4.2,1.9,4.2,4.2v38.4C283.7,221.1,281.8,223,279.5,223z"/>
			<path id="XMLID_20_" class="st0" d="M373.3,223H298c-2.3,0-4.2-1.9-4.2-4.2v-38.4c0-2.3,1.9-4.2,4.2-4.2h75.3
				c2.3,0,4.2,1.9,4.2,4.2v38.4C377.5,221.1,375.6,223,373.3,223z"/>
		</g>
	</g>
</g>
</svg>
